<?xml version="1.0" standalone="no"?>
<!DOCTYPE svg PUBLIC "-//W3C//DTD SVG 20010904//EN"
 "http://www.w3.org/TR/2001/REC-SVG-20010904/DTD/svg10.dtd">
<svg version="1.0" xmlns="http://www.w3.org/2000/svg"
 width="512.000000pt" height="512.000000pt" viewBox="0 0 512.000000 512.000000"
 preserveAspectRatio="xMidYMid meet">

<g transform="translate(0.000000,512.000000) scale(0.100000,-0.100000)"
fill="#000000" stroke="none">
<path d="M349 4481 c-29 -30 -52 -65 -58 -88 -5 -21 -11 -164 -13 -318 -4
-344 -14 -316 160 -432 l124 -81 -2 -326 c0 -209 3 -341 10 -367 6 -22 26 -56
43 -74 18 -18 151 -109 297 -203 146 -93 536 -343 867 -555 331 -212 616 -393
632 -401 44 -23 83 -20 358 24 287 46 1693 273 2051 331 134 22 252 44 262 49
49 26 42 112 -11 137 -26 13 -135 -4 -2486 -383 -83 -14 -105 -14 -118 -4 -13
11 -15 59 -15 339 0 308 1 328 20 359 11 18 26 35 33 37 6 3 585 97 1285 210
700 113 1282 210 1293 216 25 13 41 53 33 85 -8 30 -49 64 -80 64 -21 0 -964
-153 -2102 -340 l-492 -81 -110 68 c-83 51 -105 70 -92 75 9 4 260 46 557 93
1160 186 1185 190 1205 211 11 10 22 33 26 50 5 26 1 38 -24 65 l-29 33 -139
-23 c-77 -12 -305 -49 -509 -81 -203 -33 -611 -98 -905 -145 -294 -47 -545
-85 -557 -85 l-23 0 0 269 c0 242 2 271 18 289 15 18 144 41 1022 181 553 89
1029 166 1057 172 60 12 83 36 83 85 0 31 -16 52 -55 72 -20 10 -617 -84
-1832 -287 -167 -28 -311 -51 -320 -51 -10 0 -91 46 -181 103 -89 56 -211 132
-270 168 -59 37 -293 184 -519 328 -227 143 -420 261 -430 261 -9 0 -38 -22
-64 -49z"/>
</g>
</svg>
