<svg xmlns="http://www.w3.org/2000/svg" aria-hidden="true" style="position:absolute;width:0;height:0;overflow:hidden">
    <defs>
        <symbol id="icon-Bookshelf" viewBox="0 0 176 32">
            <path
                d="M22.176 8.533c0-4.731-3.497-7.406-9.545-7.406H0v29.417h13.33c6.089 0 9.998-2.921 9.998-8.599 0-4.402-2.633-6.665-5.719-7.2v-.082c2.427-.823 4.567-2.51 4.567-6.13zm-17.28 4.772V5.282h7.858c2.921 0 4.526 1.44 4.526 4.032s-1.317 3.991-4.814 3.991h-7.57zm0 3.662h8.599c3.086 0 4.937 1.687 4.937 4.69 0 2.757-1.275 4.731-5.472 4.731H4.896v-9.422zM35.89 31.161c-6.583 0-10.574-4.567-10.574-11.109S29.307 8.943 35.89 8.943s10.574 4.567 10.574 11.109-3.991 11.109-10.574 11.109zm0-3.538c4.114 0 6.254-3.25 6.254-7.57 0-4.361-2.139-7.57-6.254-7.57s-6.254 3.209-6.254 7.57c0 4.32 2.139 7.57 6.254 7.57zm23.022 3.538c-6.583 0-10.574-4.567-10.574-11.109S52.329 8.943 58.912 8.943s10.574 4.567 10.574 11.109-3.991 11.109-10.574 11.109zm0-3.538c4.114 0 6.254-3.25 6.254-7.57 0-4.361-2.139-7.57-6.254-7.57s-6.254 3.209-6.254 7.57c0 4.32 2.139 7.57 6.254 7.57zm13.56-26.496v29.417h4.32v-7.611l2.921-2.757 6.624 10.368h5.184l-8.846-13.207 7.982-7.817H85.35l-8.558 8.434V1.127h-4.32zm29.463 16.704c-3.045-.699-5.39-.864-5.39-3.003 0-1.481 1.399-2.469 3.991-2.469 3.374 0 4.197 1.687 4.485 3.333h4.197c-.288-3.662-3.003-6.747-8.722-6.747-5.266 0-8.311 2.757-8.311 6.213 0 4.773 4.526 5.431 7.858 6.213 3.086.741 5.595.946 5.595 3.579 0 1.317-1.275 2.798-4.279 2.798-4.443 0-5.431-1.934-5.637-4.197h-4.197c.206 4.443 3.127 7.611 9.915 7.611 5.102 0 8.558-2.51 8.558-6.542 0-5.019-4.197-5.883-8.064-6.789zm22.188-8.887c-3.538 0-5.719 1.646-6.83 3.291h-.082V1.126h-4.32v29.417h4.32V17.748c0-3.127 2.263-5.143 5.431-5.143 3.003 0 4.197 1.81 4.197 4.649v13.289h4.361V16.02c0-4.814-3.086-7.077-7.077-7.077zm20.325 18.679c-3.826 0-6.089-2.921-6.089-6.459h16.128c0-7.488-3.333-12.219-10.121-12.219-6.336 0-10.327 4.279-10.327 11.109 0 6.583 3.991 11.109 10.533 11.109 5.39 0 8.517-3.045 9.586-7.035h-4.32c-.37 1.275-1.81 3.497-5.39 3.497zm-.082-15.264c3.497 0 5.801 2.345 5.801 5.595h-11.808c0-3.25 2.51-5.595 6.007-5.595zm13.165-11.232v29.417h4.361V1.127h-4.361zm18.472 3.538V1.127a15.12 15.12 0 0 0-2.88-.288c-3.456 0-5.349 1.563-5.349 6.007V9.52h-3.003v3.538h3.003v17.486h4.361V13.058h3.867V9.52h-3.867V7.216c0-2.386 1.07-2.674 3.867-2.551z" />
        </symbol>
        <symbol id="icon-align-left" viewBox="0 0 32 32">
            <path stroke="#111" stroke-linecap="round" stroke-linejoin="round" stroke-width="2"
                d="M19.833 11.667H3.5M24.5 7h-21m21 9.333h-21M19.833 21H3.5" />
        </symbol>
        <symbol id="icon-logo" viewBox="0 0 32 32">
            <path fill="#f6f6f6" d="m0 0 16.343 16.171L32 32V0H0z" style="fill:#f6f6f6" />
            <path fill="#f6f6f6" d="M4.457 4.229 16.4 16.058l11.257 11.486h-23.2V4.23z" style="fill:#f6f6f6" />
            <path fill="#4f2ee8" d="M27.733 27.618 15.79 15.789 4.533 4.303h23.2v23.314z" style="fill:#4f2ee8" />
            <path fill="#4f2ee8" d="m9.257 9.029 13.6 13.6h-13.6v-13.6z" style="fill:#4f2ee8" />
            <path fill="#f6f6f6" d="m9.257 9.029 13.6 13.6v-13.6h-13.6z" style="fill:#f6f6f6" />
        </symbol>
        <symbol id="icon-uil_cart" viewBox="0 0 32 32">
            <path
                d="M25.333 9.333h-4V8a5.332 5.332 0 1 0-10.666 0v1.333h-4a1.335 1.335 0 0 0-1.334 1.334v14.667a4.003 4.003 0 0 0 4 4h13.333a4.003 4.003 0 0 0 4-4V10.667a1.335 1.335 0 0 0-1.334-1.334zM13.333 8a2.668 2.668 0 0 1 5.334 0v1.333h-5.333V8zM24 25.333a1.335 1.335 0 0 1-1.334 1.334H9.333a1.335 1.335 0 0 1-1.334-1.334V12h2.667v1.333a1.335 1.335 0 0 0 2.277.943c.25-.251.391-.589.391-.943V12h5.333v1.333a1.333 1.333 0 1 0 2.667 0V12h2.667v13.333z" />
        </symbol>
        <symbol id="icon-Bookshelf_white" viewBox="0 0 176 32">
            <path fill="#f3f3f3"
                d="M22.176 8.533c0-4.731-3.497-7.406-9.545-7.406H0v29.417h13.33c6.089 0 9.998-2.921 9.998-8.599 0-4.402-2.633-6.665-5.719-7.2v-.082c2.427-.823 4.567-2.51 4.567-6.13zm-17.28 4.772V5.282h7.858c2.921 0 4.526 1.44 4.526 4.032s-1.317 3.991-4.814 3.991h-7.57zm0 3.662h8.599c3.086 0 4.937 1.687 4.937 4.69 0 2.757-1.275 4.731-5.472 4.731H4.896v-9.422zM35.89 31.161c-6.583 0-10.574-4.567-10.574-11.109S29.307 8.943 35.89 8.943s10.574 4.567 10.574 11.109-3.991 11.109-10.574 11.109zm0-3.538c4.114 0 6.254-3.25 6.254-7.57 0-4.361-2.139-7.57-6.254-7.57s-6.254 3.209-6.254 7.57c0 4.32 2.139 7.57 6.254 7.57zm23.022 3.538c-6.583 0-10.574-4.567-10.574-11.109S52.329 8.943 58.912 8.943s10.574 4.567 10.574 11.109-3.991 11.109-10.574 11.109zm0-3.538c4.114 0 6.254-3.25 6.254-7.57 0-4.361-2.139-7.57-6.254-7.57s-6.254 3.209-6.254 7.57c0 4.32 2.139 7.57 6.254 7.57zm13.56-26.496v29.417h4.32v-7.611l2.921-2.757 6.624 10.368h5.184l-8.846-13.207 7.982-7.817H85.35l-8.558 8.434V1.127h-4.32zm29.463 16.704c-3.045-.699-5.39-.864-5.39-3.003 0-1.481 1.399-2.469 3.991-2.469 3.374 0 4.197 1.687 4.485 3.333h4.197c-.288-3.662-3.003-6.747-8.722-6.747-5.266 0-8.311 2.757-8.311 6.213 0 4.773 4.526 5.431 7.858 6.213 3.086.741 5.595.946 5.595 3.579 0 1.317-1.275 2.798-4.279 2.798-4.443 0-5.431-1.934-5.637-4.197h-4.197c.206 4.443 3.127 7.611 9.915 7.611 5.102 0 8.558-2.51 8.558-6.542 0-5.019-4.197-5.883-8.064-6.789zm22.188-8.887c-3.538 0-5.719 1.646-6.83 3.291h-.082V1.126h-4.32v29.417h4.32V17.748c0-3.127 2.263-5.143 5.431-5.143 3.003 0 4.197 1.81 4.197 4.649v13.289h4.361V16.02c0-4.814-3.086-7.077-7.077-7.077zm20.325 18.679c-3.826 0-6.089-2.921-6.089-6.459h16.128c0-7.488-3.333-12.219-10.121-12.219-6.336 0-10.327 4.279-10.327 11.109 0 6.583 3.991 11.109 10.533 11.109 5.39 0 8.517-3.045 9.586-7.035h-4.32c-.37 1.275-1.81 3.497-5.39 3.497zm-.082-15.264c3.497 0 5.801 2.345 5.801 5.595h-11.808c0-3.25 2.51-5.595 6.007-5.595zm13.165-11.232v29.417h4.361V1.127h-4.361zm18.472 3.538V1.127a15.12 15.12 0 0 0-2.88-.288c-3.456 0-5.349 1.563-5.349 6.007V9.52h-3.003v3.538h3.003v17.486h4.361V13.058h3.867V9.52h-3.867V7.216c0-2.386 1.07-2.674 3.867-2.551z"
                style="fill:#f3f3f3" />
        </symbol>
        <symbol id="icon-align-left_white" viewBox="0 0 32 32">
            <path fill="none" stroke="#fff" stroke-linecap="round" stroke-linejoin="round" stroke-width="2.286"
                d="M22.667 13.333H4M28 8H4m24 10.667H4M22.667 24H4" style="stroke:#fff" />
        </symbol>
        <symbol id="icon-Vector" viewBox="0 0 55 32">
            <path fill="#fff"
                d="M1.091 25.309 25.527.8c.291-.291.606-.496.945-.617.339-.122.703-.183 1.091-.183s.752.061 1.091.183c.339.12.655.326.946.617l24.509 24.509c.679.679 1.018 1.527 1.018 2.545s-.364 1.891-1.091 2.618c-.727.727-1.576 1.091-2.545 1.091s-1.818-.364-2.545-1.091L27.564 9.09 6.182 30.472c-.679.679-1.515 1.018-2.508 1.018-.995 0-1.856-.364-2.583-1.091S0 28.823 0 27.854c0-.97.364-1.818 1.091-2.545z"
                style="fill:var(--color1, #fff)" />
        </symbol>
        <symbol id="icon-books" viewBox="0 0 32 32">
            <path
                d="M2.181 3.994c-.181.188-.325.406-.363.55-.031.131-.069 1.025-.081 1.987-.025 2.15-.087 1.975 1 2.7l.775.506-.013 2.037c0 1.306.019 2.131.063 2.294.038.137.163.35.269.463.112.113.944.681 1.856 1.269.912.581 3.35 2.144 5.419 3.469s3.85 2.456 3.95 2.506c.275.144.519.125 2.238-.15 1.794-.288 10.581-1.706 12.819-2.069.837-.137 1.575-.275 1.637-.306.306-.163.262-.7-.069-.856-.163-.081-.844.025-15.537 2.394-.519.087-.656.087-.738.025-.081-.069-.094-.369-.094-2.119 0-1.925.006-2.05.125-2.244.069-.113.162-.219.206-.231.037-.019 3.656-.606 8.031-1.313s8.012-1.313 8.081-1.35c.156-.081.256-.331.206-.531-.05-.188-.306-.4-.5-.4-.131 0-6.025.956-13.137 2.125l-3.075.506-.688-.425c-.519-.319-.656-.438-.575-.469.056-.025 1.625-.287 3.481-.581 7.25-1.162 7.406-1.188 7.531-1.319a.72.72 0 0 0 .163-.313c.031-.162.006-.238-.15-.406l-.181-.206-.869.144c-.481.075-1.906.306-3.181.506-1.269.206-3.819.613-5.656.906s-3.406.531-3.481.531h-.144v-1.681c0-1.512.012-1.694.113-1.806.094-.113.9-.256 6.387-1.131 3.456-.556 6.431-1.037 6.606-1.075.375-.075.519-.225.519-.531 0-.194-.1-.325-.344-.45-.125-.063-3.856.525-11.45 1.794a68.537 68.537 0 0 1-2 .319c-.063 0-.569-.287-1.131-.644-.556-.35-1.319-.825-1.688-1.05-.369-.231-1.831-1.15-3.244-2.05-1.419-.894-2.625-1.631-2.688-1.631-.056 0-.237.138-.4.306z" />
        </symbol>
        <symbol id="icon-align-left_white" viewBox="0 0 32 32">
            <path fill="none" stroke="#fff" stroke-linecap="round" stroke-linejoin="round" stroke-width="2.286"
                d="M22.667 13.333H4M28 8H4M28 18.667H4M22.667 24H4" style="stroke:var(--color1, #fff)" />
        </symbol>
        <symbol id="arrow-icon" viewBox="0 0 32 32">
            <path fill="#4f2ee8"
                d="M15.053 17.867a1.334 1.334 0 0 0 1.894 0l6.107-6.12a1.334 1.334 0 1 1 1.894 1.88l-6.12 6.12a4.001 4.001 0 0 1-5.654 0l-6.12-6.12a1.337 1.337 0 0 1 .434-2.172 1.331 1.331 0 0 1 1.46.292l6.107 6.12z"
                style="fill:var(--color1, #4f2ee8)" />
        </symbol>
        <symbol id="icon-trash" viewBox="0 0 32 32">
            <path fill="none" stroke="#fff" stroke-linecap="round" stroke-linejoin="round" stroke-width="2"
                d="M12 4h8M4 8h24m-2.667 0-.935 14.026c-.14 2.104-.21 3.156-.665 3.954a4.007 4.007 0 0 1-1.731 1.62c-.826.4-1.881.4-3.99.4h-4.025c-2.109 0-3.163 0-3.99-.4a4.001 4.001 0 0 1-1.731-1.62c-.455-.798-.525-1.85-.665-3.954L6.666 8m6.667 6v6.667M18.667 14v6.667"
                style="stroke:var(--color1, #fff)" />
        </symbol>
        <symbol id="custom-shape" viewBox="0 0 90 120">
            <path
                d="M90,0 L90,120 L11,120 C4.92486775,120 0,115.075132 0,109 L0,11 C0,4.92486775 4.92486775,0 11,0 L90,0 Z M71.5,81 L18.5,81 C17.1192881,81 16,82.1192881 16,83.5 C16,84.8254834 17.0315359,85.9100387 18.3356243,85.9946823 L18.5,86 L71.5,86 C72.8807119,86 74,84.8807119 74,83.5 C74,82.1745166 72.9684641,81.0899613 71.6643757,81.0053177 L71.5,81 Z M71.5,57 L18.5,57 C17.1192881,57 16,58.1192881 16,59.5 C16,60.8254834 17.0315359,61.9100387 18.3356243,61.9946823 L18.5,62 L71.5,62 C72.8807119,62 74,60.8807119 74,59.5 C74,58.1192881 72.8807119,57 71.5,57 Z M71.5,33 L18.5,33 C17.1192881,33 16,34.1192881 16,35.5 C16,36.8254834 17.0315359,37.9100387 18.3356243,37.9946823 L18.5,38 L71.5,38 C72.8807119,38 74,36.8807119 74,35.5 C74,34.1192881 72.8807119,33 71.5,33 Z">
            </path>
        </symbol>
    </defs>
</svg>